<svg xmlns="http://www.w3.org/2000/svg" width="60" height="60" viewBox="0 0 60 60">
  <defs>
    <style>
      .cls-1 {
        fill: #fff;
        fill-rule: evenodd;
      }
    </style>
  </defs>
  <path id="down_arrow" class="cls-1" d="M930,988.114c0.152-1.1.27-2.2,0.461-3.293A29.978,29.978,0,0,1,976.882,965.2a28.593,28.593,0,0,1,12.429,18.532c2.236,11.333-1.026,21-9.567,28.784a28.854,28.854,0,0,1-16.714,7.32l-1.151.15h-3.75a3.6,3.6,0,0,0-.453-0.1,28.679,28.679,0,0,1-12.98-4.11,29.617,29.617,0,0,1-14.228-20.565c-0.211-1.107-.314-2.234-0.466-3.351v-3.75Zm57,1.9a26.995,26.995,0,1,0-27.05,26.961A26.981,26.981,0,0,0,987,990.019ZM960.013,995.2c2.312-2.643,4.572-5.228,6.834-7.812,0.8-.91,1.589-1.824,2.394-2.728a1.517,1.517,0,0,1,2.26-.282,1.539,1.539,0,0,1-.033,2.285q-5.087,5.818-10.178,11.632a1.54,1.54,0,0,1-2.588-.013q-5.091-5.815-10.176-11.635a1.58,1.58,0,0,1-.333-1.878,1.372,1.372,0,0,1,1.521-.736,2.44,2.44,0,0,1,1.1.7c2.924,3.3,5.822,6.628,8.727,9.946C959.678,994.837,959.822,994.992,960.013,995.2Z" transform="translate(-930 -960)"/>
</svg>
